<mxfile host="app.diagrams.net" agent="Mozilla/5.0 (X11; Ubuntu; Linux x86_64; rv:132.0) Gecko/20100101 Firefox/132.0" version="24.8.3">
  <diagram name="Page-1" id="EN49NtojN3FvXGfBiL58">
    <mxGraphModel dx="2214" dy="758" grid="1" gridSize="10" guides="1" tooltips="1" connect="1" arrows="1" fold="1" page="1" pageScale="1" pageWidth="850" pageHeight="1100" math="0" shadow="0">
      <root>
        <mxCell id="0" />
        <mxCell id="1" parent="0" />
        <mxCell id="BQzGAjLgu80pGUCKPFYO-1" value="" style="rounded=0;whiteSpace=wrap;html=1;fillColor=#dae8fc;strokeColor=#6c8ebf;" vertex="1" parent="1">
          <mxGeometry x="80" y="100" width="680" height="120" as="geometry" />
        </mxCell>
        <mxCell id="BQzGAjLgu80pGUCKPFYO-2" value="&lt;b&gt;SSL&lt;/b&gt;" style="text;html=1;align=center;verticalAlign=middle;whiteSpace=wrap;rounded=0;" vertex="1" parent="1">
          <mxGeometry x="390" y="230" width="60" height="30" as="geometry" />
        </mxCell>
        <mxCell id="BQzGAjLgu80pGUCKPFYO-7" value="" style="edgeStyle=orthogonalEdgeStyle;rounded=0;orthogonalLoop=1;jettySize=auto;html=1;" edge="1" parent="1" source="BQzGAjLgu80pGUCKPFYO-3" target="BQzGAjLgu80pGUCKPFYO-4">
          <mxGeometry relative="1" as="geometry" />
        </mxCell>
        <mxCell id="BQzGAjLgu80pGUCKPFYO-3" value="message m" style="rounded=0;whiteSpace=wrap;html=1;" vertex="1" parent="1">
          <mxGeometry x="100" y="150" width="120" height="60" as="geometry" />
        </mxCell>
        <mxCell id="BQzGAjLgu80pGUCKPFYO-4" value="message m" style="rounded=0;whiteSpace=wrap;html=1;" vertex="1" parent="1">
          <mxGeometry x="310" y="150" width="120" height="60" as="geometry" />
        </mxCell>
        <mxCell id="BQzGAjLgu80pGUCKPFYO-8" value="" style="edgeStyle=orthogonalEdgeStyle;rounded=0;orthogonalLoop=1;jettySize=auto;html=1;" edge="1" parent="1" source="BQzGAjLgu80pGUCKPFYO-5" target="BQzGAjLgu80pGUCKPFYO-6">
          <mxGeometry relative="1" as="geometry" />
        </mxCell>
        <mxCell id="BQzGAjLgu80pGUCKPFYO-5" value="tag" style="rounded=0;whiteSpace=wrap;html=1;" vertex="1" parent="1">
          <mxGeometry x="430" y="150" width="70" height="60" as="geometry" />
        </mxCell>
        <mxCell id="BQzGAjLgu80pGUCKPFYO-6" value="" style="rounded=0;whiteSpace=wrap;html=1;" vertex="1" parent="1">
          <mxGeometry x="590" y="150" width="160" height="60" as="geometry" />
        </mxCell>
        <mxCell id="BQzGAjLgu80pGUCKPFYO-9" value="Encryption key: k_E" style="text;html=1;align=center;verticalAlign=middle;whiteSpace=wrap;rounded=0;" vertex="1" parent="1">
          <mxGeometry x="160" y="50" width="130" height="30" as="geometry" />
        </mxCell>
        <mxCell id="BQzGAjLgu80pGUCKPFYO-10" value="MAC key = k_I" style="text;html=1;align=center;verticalAlign=middle;whiteSpace=wrap;rounded=0;" vertex="1" parent="1">
          <mxGeometry x="480" y="50" width="130" height="30" as="geometry" />
        </mxCell>
        <mxCell id="BQzGAjLgu80pGUCKPFYO-11" value="S(k_I, m)" style="text;html=1;align=center;verticalAlign=middle;whiteSpace=wrap;rounded=0;" vertex="1" parent="1">
          <mxGeometry x="430" y="120" width="60" height="30" as="geometry" />
        </mxCell>
        <mxCell id="BQzGAjLgu80pGUCKPFYO-12" value="E(k_E, m || tag)" style="text;html=1;align=center;verticalAlign=middle;whiteSpace=wrap;rounded=0;" vertex="1" parent="1">
          <mxGeometry x="615" y="120" width="110" height="30" as="geometry" />
        </mxCell>
        <mxCell id="BQzGAjLgu80pGUCKPFYO-13" value="" style="rounded=0;whiteSpace=wrap;html=1;fillColor=#d5e8d4;strokeColor=#82b366;" vertex="1" parent="1">
          <mxGeometry x="80" y="330" width="680" height="120" as="geometry" />
        </mxCell>
        <mxCell id="BQzGAjLgu80pGUCKPFYO-14" value="&lt;b&gt;IPsec&lt;/b&gt;" style="text;html=1;align=center;verticalAlign=middle;whiteSpace=wrap;rounded=0;" vertex="1" parent="1">
          <mxGeometry x="390" y="460" width="60" height="30" as="geometry" />
        </mxCell>
        <mxCell id="BQzGAjLgu80pGUCKPFYO-15" value="" style="edgeStyle=orthogonalEdgeStyle;rounded=0;orthogonalLoop=1;jettySize=auto;html=1;" edge="1" parent="1" source="BQzGAjLgu80pGUCKPFYO-16" target="BQzGAjLgu80pGUCKPFYO-17">
          <mxGeometry relative="1" as="geometry" />
        </mxCell>
        <mxCell id="BQzGAjLgu80pGUCKPFYO-16" value="message m" style="rounded=0;whiteSpace=wrap;html=1;" vertex="1" parent="1">
          <mxGeometry x="100" y="380" width="120" height="60" as="geometry" />
        </mxCell>
        <mxCell id="BQzGAjLgu80pGUCKPFYO-23" value="" style="edgeStyle=orthogonalEdgeStyle;rounded=0;orthogonalLoop=1;jettySize=auto;html=1;" edge="1" parent="1" source="BQzGAjLgu80pGUCKPFYO-17" target="BQzGAjLgu80pGUCKPFYO-20">
          <mxGeometry relative="1" as="geometry" />
        </mxCell>
        <mxCell id="BQzGAjLgu80pGUCKPFYO-17" value="" style="rounded=0;whiteSpace=wrap;html=1;" vertex="1" parent="1">
          <mxGeometry x="310" y="380" width="120" height="60" as="geometry" />
        </mxCell>
        <mxCell id="BQzGAjLgu80pGUCKPFYO-19" value="tag" style="rounded=0;whiteSpace=wrap;html=1;" vertex="1" parent="1">
          <mxGeometry x="680" y="380" width="70" height="60" as="geometry" />
        </mxCell>
        <mxCell id="BQzGAjLgu80pGUCKPFYO-20" value="" style="rounded=0;whiteSpace=wrap;html=1;" vertex="1" parent="1">
          <mxGeometry x="520" y="380" width="160" height="60" as="geometry" />
        </mxCell>
        <mxCell id="BQzGAjLgu80pGUCKPFYO-21" value="S(k_I, c)" style="text;html=1;align=center;verticalAlign=middle;whiteSpace=wrap;rounded=0;" vertex="1" parent="1">
          <mxGeometry x="685" y="350" width="60" height="30" as="geometry" />
        </mxCell>
        <mxCell id="BQzGAjLgu80pGUCKPFYO-24" value="E(k_E, m)" style="text;html=1;align=center;verticalAlign=middle;whiteSpace=wrap;rounded=0;" vertex="1" parent="1">
          <mxGeometry x="315" y="350" width="110" height="30" as="geometry" />
        </mxCell>
        <mxCell id="BQzGAjLgu80pGUCKPFYO-25" value="" style="rounded=0;whiteSpace=wrap;html=1;fillColor=#f8cecc;strokeColor=#b85450;" vertex="1" parent="1">
          <mxGeometry x="80" y="560" width="680" height="120" as="geometry" />
        </mxCell>
        <mxCell id="BQzGAjLgu80pGUCKPFYO-26" value="&lt;b&gt;SSH&lt;/b&gt;" style="text;html=1;align=center;verticalAlign=middle;whiteSpace=wrap;rounded=0;" vertex="1" parent="1">
          <mxGeometry x="390" y="690" width="60" height="30" as="geometry" />
        </mxCell>
        <mxCell id="BQzGAjLgu80pGUCKPFYO-27" value="" style="edgeStyle=orthogonalEdgeStyle;rounded=0;orthogonalLoop=1;jettySize=auto;html=1;" edge="1" parent="1" source="BQzGAjLgu80pGUCKPFYO-28" target="BQzGAjLgu80pGUCKPFYO-30">
          <mxGeometry relative="1" as="geometry" />
        </mxCell>
        <mxCell id="BQzGAjLgu80pGUCKPFYO-28" value="message m" style="rounded=0;whiteSpace=wrap;html=1;" vertex="1" parent="1">
          <mxGeometry x="100" y="610" width="120" height="60" as="geometry" />
        </mxCell>
        <mxCell id="BQzGAjLgu80pGUCKPFYO-29" value="" style="edgeStyle=orthogonalEdgeStyle;rounded=0;orthogonalLoop=1;jettySize=auto;html=1;" edge="1" parent="1" source="BQzGAjLgu80pGUCKPFYO-30" target="BQzGAjLgu80pGUCKPFYO-32">
          <mxGeometry relative="1" as="geometry" />
        </mxCell>
        <mxCell id="BQzGAjLgu80pGUCKPFYO-30" value="" style="rounded=0;whiteSpace=wrap;html=1;" vertex="1" parent="1">
          <mxGeometry x="310" y="610" width="120" height="60" as="geometry" />
        </mxCell>
        <mxCell id="BQzGAjLgu80pGUCKPFYO-31" value="tag" style="rounded=0;whiteSpace=wrap;html=1;" vertex="1" parent="1">
          <mxGeometry x="680" y="610" width="70" height="60" as="geometry" />
        </mxCell>
        <mxCell id="BQzGAjLgu80pGUCKPFYO-32" value="" style="rounded=0;whiteSpace=wrap;html=1;" vertex="1" parent="1">
          <mxGeometry x="520" y="610" width="160" height="60" as="geometry" />
        </mxCell>
        <mxCell id="BQzGAjLgu80pGUCKPFYO-33" value="S(k_I, m)" style="text;html=1;align=center;verticalAlign=middle;whiteSpace=wrap;rounded=0;" vertex="1" parent="1">
          <mxGeometry x="685" y="580" width="60" height="30" as="geometry" />
        </mxCell>
        <mxCell id="BQzGAjLgu80pGUCKPFYO-34" value="E(k_E, m)" style="text;html=1;align=center;verticalAlign=middle;whiteSpace=wrap;rounded=0;" vertex="1" parent="1">
          <mxGeometry x="315" y="580" width="110" height="30" as="geometry" />
        </mxCell>
        <mxCell id="BQzGAjLgu80pGUCKPFYO-35" value="Broken" style="rounded=1;whiteSpace=wrap;html=1;dashed=1;fillColor=#f8cecc;strokeColor=#b85450;" vertex="1" parent="1">
          <mxGeometry x="-110" y="410" width="80" height="40" as="geometry" />
        </mxCell>
        <mxCell id="BQzGAjLgu80pGUCKPFYO-46" value="Always work" style="rounded=1;whiteSpace=wrap;html=1;dashed=1;fillColor=#d5e8d4;strokeColor=#82b366;" vertex="1" parent="1">
          <mxGeometry x="-110" y="370" width="80" height="40" as="geometry" />
        </mxCell>
        <mxCell id="BQzGAjLgu80pGUCKPFYO-47" value="Work in some cases" style="rounded=1;whiteSpace=wrap;html=1;dashed=1;fillColor=#dae8fc;strokeColor=#6c8ebf;" vertex="1" parent="1">
          <mxGeometry x="-110" y="330" width="80" height="40" as="geometry" />
        </mxCell>
      </root>
    </mxGraphModel>
  </diagram>
</mxfile>
